<?xml version="1.0" encoding="UTF-8" standalone="no"?>
<svg
   xmlns:dc="http://purl.org/dc/elements/1.1/"
   xmlns:cc="http://creativecommons.org/ns#"
   xmlns:rdf="http://www.w3.org/1999/02/22-rdf-syntax-ns#"
   xmlns:svg="http://www.w3.org/2000/svg"
   xmlns="http://www.w3.org/2000/svg"
   xmlns:sodipodi="http://sodipodi.sourceforge.net/DTD/sodipodi-0.dtd"
   xmlns:inkscape="http://www.inkscape.org/namespaces/inkscape"
   version="1.1"
   width="4251.9683"
   height="2834.6458"
   id="svg50"
   viewBox="0 0 4251.9683 2834.6458"
   sodipodi:docname="logotip_MILK.svg"
   inkscape:version="0.92.4 (5da689c313, 2019-01-14)">
  <metadata
     id="metadata56">
    <rdf:RDF>
      <cc:Work
         rdf:about="">
        <dc:format>image/svg+xml</dc:format>
        <dc:type
           rdf:resource="http://purl.org/dc/dcmitype/StillImage" />
        <dc:title></dc:title>
      </cc:Work>
    </rdf:RDF>
  </metadata>
  <defs
     id="defs54" />
  <sodipodi:namedview
     pagecolor="#ffffff"
     bordercolor="#666666"
     borderopacity="1"
     objecttolerance="10"
     gridtolerance="10"
     guidetolerance="10"
     inkscape:pageopacity="0"
     inkscape:pageshadow="2"
     inkscape:window-width="1920"
     inkscape:window-height="1057"
     id="namedview52"
     showgrid="false"
     inkscape:zoom="0.16651111"
     inkscape:cx="2176.2007"
     inkscape:cy="896.10279"
     inkscape:window-x="-8"
     inkscape:window-y="-8"
     inkscape:window-maximized="1"
     inkscape:current-layer="svg50" />
  <path
     d="m 740.6819,638.4852 h 2762.5773 c 290.4761,0 528.139,237.6627 528.139,528.139 v 0 c 0,290.4769 -237.6629,528.1396 -528.139,528.1396 H 740.6819 c -290.4767,0 -528.1396,-237.6627 -528.1396,-528.1396 v 0 c 0,-290.4763 237.6629,-528.139 528.1396,-528.139 z"
     style="fill:none;stroke:#54a9d4;stroke-width:15.99989986;stroke-linecap:round;stroke-linejoin:round;stroke-dasharray:none"
     id="path2"
     inkscape:connector-curvature="0"
     inkscape:export-xdpi="96"
     inkscape:export-ydpi="96" />
  <path
     d="m 732.1311,712.2532 h 2779.6783 c 249.9046,0 454.3713,204.4672 454.3713,454.371 v 6e-4 c 0,249.9038 -204.4667,454.371 -454.3713,454.371 H 732.1311 c -249.9043,0 -454.3713,-204.4672 -454.3713,-454.371 v -6e-4 c 0,-249.9038 204.467,-454.371 454.3713,-454.371 z"
     style="fill:#ffffff;fill-rule:evenodd;stroke:#54a9d4;stroke-width:11.99989986;stroke-linecap:round;stroke-linejoin:round;stroke-dasharray:none"
     id="path4"
     inkscape:connector-curvature="0"
     inkscape:export-xdpi="96"
     inkscape:export-ydpi="96" />
  <path
     d="m 4059.6906,1144.8928 c -25.9233,-49.0574 -50.2133,-84.9875 -72.8688,-107.7897 -32.8366,37.6944 -58.8979,80.14 -78.1839,127.3359 -7.5966,29.0462 -0.027,55.2993 22.7087,78.7581 22.5925,19.3307 49.9949,24.8881 82.2079,16.6712 26.5855,-12.23 44.0237,-30.5302 52.3144,-54.9011 7.4896,-19.4751 5.4298,-39.4999 -6.1783,-60.0744 z"
     style="fill:#ffffff;fill-rule:evenodd;stroke:#ffffff;stroke-width:0.21600001;stroke-linecap:round;stroke-linejoin:round;stroke-dasharray:none"
     id="path6"
     inkscape:connector-curvature="0"
     inkscape:export-xdpi="96"
     inkscape:export-ydpi="96" />
  <path
     d="m 3990.8484,1033.3219 -2.8804,-3.546 -2.8555,3.546 c -3.3917,4.1632 -82.9526,102.6278 -82.9526,148.7816 0,47.2995 38.4914,85.8128 85.8081,85.8128 47.3198,0 85.8112,-38.5133 85.8112,-85.8128 0,-46.1538 -79.5594,-144.6184 -82.9308,-148.7816 z m -2.8804,227.1829 c -43.2361,0 -78.4169,-35.1808 -78.4169,-78.4013 0,-38.6816 63.2105,-121.2289 78.4169,-140.5191 15.2095,19.2902 78.4215,101.8142 78.4215,140.5191 0,43.2205 -35.1808,78.4013 -78.4215,78.4013 z"
     style="fill:#54a9d4;fill-rule:evenodd"
     id="path8"
     inkscape:connector-curvature="0"
     inkscape:export-xdpi="96"
     inkscape:export-ydpi="96" />
  <path
     d="m 3940.9319,1162.2164 0.4068,-1.1846 -6.9829,-2.4237 -0.4083,1.1596 c -8.6756,24.8063 0.4754,60.1181 27.9439,73.1985 l 1.1175,0.5393 3.1829,-6.6805 -1.1207,-0.5175 c -23.5173,-11.2115 -31.5959,-42.7622 -24.1392,-64.0911 z"
     style="fill:#54a9d4;fill-rule:evenodd"
     id="path10"
     inkscape:connector-curvature="0"
     inkscape:export-xdpi="96"
     inkscape:export-ydpi="96" />
  <path
     d="m 3990.8484,1033.3219 -2.8804,-3.546 -2.8555,3.546 c -3.3917,4.1632 -82.9526,102.6278 -82.9526,148.7816 0,47.2995 38.4914,85.8128 85.8081,85.8128 47.3198,0 85.8112,-38.5133 85.8112,-85.8128 0,-46.1538 -79.5594,-144.6184 -82.9308,-148.7816 z m -2.8804,227.1829 c -43.2361,0 -78.4169,-35.1808 -78.4169,-78.4013 0,-38.6816 63.2105,-121.2289 78.4169,-140.5191 15.2095,19.2902 78.4215,101.8142 78.4215,140.5191 0,43.2205 -35.1808,78.4013 -78.4215,78.4013 z"
     style="fill:#54a9d4;fill-rule:evenodd"
     id="path12"
     inkscape:connector-curvature="0"
     inkscape:export-xdpi="96"
     inkscape:export-ydpi="96" />
  <path
     d="m 3940.9319,1162.2164 0.4068,-1.1846 -6.9829,-2.4237 -0.4083,1.1596 c -8.6756,24.8063 0.4754,60.1181 27.9439,73.1985 l 1.1175,0.5393 3.1829,-6.6805 -1.1207,-0.5175 c -23.5173,-11.2115 -31.5959,-42.7622 -24.1392,-64.0911 z"
     style="fill:#54a9d4;fill-rule:evenodd"
     id="path14"
     inkscape:connector-curvature="0"
     inkscape:export-xdpi="96"
     inkscape:export-ydpi="96" />
  <path
     d="m 3990.8484,1033.3219 -2.8804,-3.546 -2.8555,3.546 c -3.3917,4.1632 -82.9526,102.6278 -82.9526,148.7816 0,47.2995 38.4914,85.8128 85.8081,85.8128 47.3198,0 85.8112,-38.5133 85.8112,-85.8128 0,-46.1538 -79.5594,-144.6184 -82.9308,-148.7816 z m -2.8804,227.1829 c -43.2361,0 -78.4169,-35.1808 -78.4169,-78.4013 0,-38.6816 63.2105,-121.2289 78.4169,-140.5191 15.2095,19.2902 78.4215,101.8142 78.4215,140.5191 0,43.2205 -35.1808,78.4013 -78.4215,78.4013 z"
     style="fill:#54a9d4;fill-rule:evenodd"
     id="path16"
     inkscape:connector-curvature="0"
     inkscape:export-xdpi="96"
     inkscape:export-ydpi="96" />
  <path
     d="m 3940.9319,1162.2164 0.4068,-1.1846 -6.9829,-2.4237 -0.4083,1.1596 c -8.6756,24.8063 0.4754,60.1181 27.9439,73.1985 l 1.1175,0.5393 3.1829,-6.6805 -1.1207,-0.5175 c -23.5173,-11.2115 -31.5959,-42.7622 -24.1392,-64.0911 z"
     style="fill:#54a9d4;fill-rule:evenodd"
     id="path18"
     inkscape:connector-curvature="0"
     inkscape:export-xdpi="96"
     inkscape:export-ydpi="96" />
  <path
     d="m 329.4876,1144.8928 c -25.9233,-49.0574 -50.2133,-84.9875 -72.8688,-107.7897 -32.8366,37.6944 -58.8979,80.14 -78.184,127.3359 -7.5965,29.0462 -0.0271,55.2993 22.7088,78.7581 22.5924,19.3307 49.9949,24.8881 82.2079,16.6712 26.5855,-12.23 44.0236,-30.5302 52.3144,-54.9011 7.4895,-19.4751 5.4297,-39.4999 -6.1783,-60.0744 z"
     style="fill:#ffffff;fill-rule:evenodd;stroke:#ffffff;stroke-width:0.21600001;stroke-linecap:round;stroke-linejoin:round;stroke-dasharray:none"
     id="path20"
     inkscape:connector-curvature="0"
     inkscape:export-xdpi="96"
     inkscape:export-ydpi="96" />
  <path
     d="m 260.6454,1033.3219 -2.8804,-3.546 -2.8555,3.546 c -3.3917,4.1632 -82.9527,102.6278 -82.9527,148.7816 0,47.2995 38.4915,85.8128 85.8082,85.8128 47.3197,0 85.8112,-38.5133 85.8112,-85.8128 0,-46.1538 -79.5594,-144.6184 -82.9308,-148.7816 z m -2.8804,227.1829 c -43.2361,0 -78.4169,-35.1808 -78.4169,-78.4013 0,-38.6816 63.2104,-121.2289 78.4169,-140.5191 15.2095,19.2902 78.4215,101.8142 78.4215,140.5191 0,43.2205 -35.1808,78.4013 -78.4215,78.4013 z"
     style="fill:#54a9d4;fill-rule:evenodd"
     id="path22"
     inkscape:connector-curvature="0"
     inkscape:export-xdpi="96"
     inkscape:export-ydpi="96" />
  <path
     d="m 210.7289,1162.2164 0.4068,-1.1846 -6.9829,-2.4237 -0.4084,1.1596 c -8.6755,24.8063 0.4754,60.1181 27.9439,73.1985 l 1.1176,0.5393 3.1828,-6.6805 -1.1207,-0.5175 c -23.5172,-11.2115 -31.5958,-42.7622 -24.1391,-64.0911 z"
     style="fill:#54a9d4;fill-rule:evenodd"
     id="path24"
     inkscape:connector-curvature="0"
     inkscape:export-xdpi="96"
     inkscape:export-ydpi="96" />
  <path
     d="m 260.6454,1033.3219 -2.8804,-3.546 -2.8555,3.546 c -3.3917,4.1632 -82.9527,102.6278 -82.9527,148.7816 0,47.2995 38.4915,85.8128 85.8082,85.8128 47.3197,0 85.8112,-38.5133 85.8112,-85.8128 0,-46.1538 -79.5594,-144.6184 -82.9308,-148.7816 z m -2.8804,227.1829 c -43.2361,0 -78.4169,-35.1808 -78.4169,-78.4013 0,-38.6816 63.2104,-121.2289 78.4169,-140.5191 15.2095,19.2902 78.4215,101.8142 78.4215,140.5191 0,43.2205 -35.1808,78.4013 -78.4215,78.4013 z"
     style="fill:#54a9d4;fill-rule:evenodd"
     id="path26"
     inkscape:connector-curvature="0"
     inkscape:export-xdpi="96"
     inkscape:export-ydpi="96" />
  <path
     d="m 210.7289,1162.2164 0.4068,-1.1846 -6.9829,-2.4237 -0.4084,1.1596 c -8.6755,24.8063 0.4754,60.1181 27.9439,73.1985 l 1.1176,0.5393 3.1828,-6.6805 -1.1207,-0.5175 c -23.5172,-11.2115 -31.5958,-42.7622 -24.1391,-64.0911 z"
     style="fill:#54a9d4;fill-rule:evenodd"
     id="path28"
     inkscape:connector-curvature="0"
     inkscape:export-xdpi="96"
     inkscape:export-ydpi="96" />
  <path
     d="m 260.6454,1033.3219 -2.8804,-3.546 -2.8555,3.546 c -3.3917,4.1632 -82.9527,102.6278 -82.9527,148.7816 0,47.2995 38.4915,85.8128 85.8082,85.8128 47.3197,0 85.8112,-38.5133 85.8112,-85.8128 0,-46.1538 -79.5594,-144.6184 -82.9308,-148.7816 z m -2.8804,227.1829 c -43.2361,0 -78.4169,-35.1808 -78.4169,-78.4013 0,-38.6816 63.2104,-121.2289 78.4169,-140.5191 15.2095,19.2902 78.4215,101.8142 78.4215,140.5191 0,43.2205 -35.1808,78.4013 -78.4215,78.4013 z"
     style="fill:#54a9d4;fill-rule:evenodd"
     id="path30"
     inkscape:connector-curvature="0"
     inkscape:export-xdpi="96"
     inkscape:export-ydpi="96" />
  <path
     d="m 210.7289,1162.2164 0.4068,-1.1846 -6.9829,-2.4237 -0.4084,1.1596 c -8.6755,24.8063 0.4754,60.1181 27.9439,73.1985 l 1.1176,0.5393 3.1828,-6.6805 -1.1207,-0.5175 c -23.5172,-11.2115 -31.5958,-42.7622 -24.1391,-64.0911 z"
     style="fill:#54a9d4;fill-rule:evenodd"
     id="path32"
     inkscape:connector-curvature="0"
     inkscape:export-xdpi="96"
     inkscape:export-ydpi="96" />
  <path
     d="m 1800.328,1569.1334 h 697.0589 c 48.217,0 87.6671,39.4503 87.6671,87.6668 v 0 c 0,48.2168 -39.4501,87.6668 -87.6671,87.6668 H 1800.328 c -48.2165,0 -87.6666,-39.45 -87.6666,-87.6668 v 0 c 0,-48.2165 39.4501,-87.6668 87.6666,-87.6668 z"
     style="fill:#ffffff;fill-rule:evenodd;stroke:#54a9d4;stroke-width:6.00010014;stroke-linecap:round;stroke-linejoin:round;stroke-dasharray:none"
     id="path34"
     inkscape:connector-curvature="0"
     inkscape:export-xdpi="96"
     inkscape:export-ydpi="96" />
  <path
     d="m 1825.8562,1700.2576 c -11.1855,-0.021 -19.9066,-4.2128 -26.1419,-12.5969 -6.2141,-8.405 -9.3317,-18.769 -9.3317,-31.113 0,-12.2599 3.3072,-22.5188 9.9216,-30.7551 6.6356,-8.2576 15.3776,-12.3863 26.2261,-12.3863 10.9539,0 19.6115,4.1287 25.952,12.3863 6.3618,8.2363 9.5426,18.5584 9.5426,30.9447 0,12.9971 -3.3072,23.5086 -9.9006,31.5133 -6.6143,8.0048 -15.3564,11.986 -26.2681,12.007 z m 0.1264,-12.2386 c 5.4769,0 10.0903,-2.2541 13.8819,-6.783 3.7916,-4.5292 5.6874,-12.7233 5.6874,-24.6251 0,-9.669 -1.5797,-17.2523 -4.6973,-22.7294 -3.1178,-5.498 -7.9838,-8.2363 -14.5562,-8.2363 -13.0181,0 -19.506,10.4692 -19.506,31.4079 0,10.1534 1.6429,17.8633 4.9711,23.1086 3.3075,5.2452 8.047,7.8573 14.2191,7.8573 z m 73.3695,-3.3916 13.2077,-2.5277 c 2.0222,5.0556 6.467,7.5833 13.3342,7.5833 8.7211,0 13.0816,-2.5699 13.0816,-7.7097 0,-1.6433 -0.6741,-2.9914 -2.0435,-4.0657 -1.3482,-1.0744 -2.9492,-1.7904 -4.8027,-2.1697 l -11.3542,-2.1486 c -12.5969,-2.4225 -18.8955,-8.5734 -18.8955,-18.453 0,-5.5191 2.0013,-10.1957 5.9825,-14.0505 4.0026,-3.8339 9.9428,-5.7719 17.8421,-5.7719 13.1658,0 21.2128,4.845 24.1407,14.5139 l -12.5336,2.528 c -1.3272,-4.6976 -5.0556,-7.0359 -11.2278,-7.0359 -7.499,0 -11.2487,2.3383 -11.2487,7.0359 0,3.2439 3.0334,5.4978 9.0791,6.7195 l 13.3974,2.7808 c 10.406,2.1487 15.6092,8.1099 15.6092,17.9053 0,6.8672 -2.6753,12.007 -8.0257,15.3987 -5.3507,3.3913 -11.6912,5.0765 -19.0641,5.0975 -6.3828,-0.021 -12.007,-1.3059 -16.9152,-3.8758 -4.8872,-2.5699 -8.089,-6.4882 -9.5635,-11.7544 z m 125.4636,3.3284 v 10.9959 c -4.1921,0.9057 -7.4361,1.3481 -9.7321,1.3481 -3.7917,0 -7.0359,-0.7372 -9.7532,-2.2538 -2.7173,-1.4958 -4.6976,-3.539 -5.9613,-6.1512 -1.2639,-2.6331 -1.8748,-6.6353 -1.8748,-12.0702 v -32.2718 h -7.7941 v -10.9327 h 8.5946 l 1.2849,-16.2201 11.5436,-1.0534 v 17.2735 h 12.5336 v 10.9327 h -12.5336 v 30.418 c 0,3.897 0.7163,6.5724 2.1277,7.9838 1.4323,1.4323 4.1076,2.1274 8.0467,2.1274 1.1165,0 2.296,-0.042 3.518,-0.1262 z m 26.2469,-5.182 v 16.1779 h -15.251 v -16.1779 z m 138.1657,3.0333 v 13.1446 h -62.0787 v -14.7456 l 25.8046,-17.168 c 8.0048,-5.3507 13.3974,-10.0902 16.1569,-14.2189 2.7595,-4.1289 4.129,-7.9205 4.129,-11.3751 0,-4.1709 -1.3695,-7.6677 -4.129,-10.5117 -2.7595,-2.8228 -6.3405,-4.2551 -10.743,-4.2551 -9.6267,0 -15.1458,5.8771 -16.5994,17.5893 l -14.6191,-3.6443 c 1.1163,-7.478 4.4237,-13.8818 9.9638,-19.2112 5.54,-5.3294 12.7865,-8.0048 21.7601,-8.0048 9.2897,0 16.7258,2.6541 22.2659,7.9416 5.5613,5.2872 8.3418,12.007 8.3418,20.1381 0,7.2043 -2.4648,13.6293 -7.4149,19.2958 -4.9292,5.6664 -17.168,14.0082 -36.7166,25.0253 z m 75.2443,14.4505 c -10.3218,-0.021 -18.2843,-4.0022 -23.8879,-12.007 -5.5822,-8.0047 -8.3837,-18.1791 -8.3837,-30.5235 0,-13.3341 2.9279,-24.0562 8.784,-32.1451 5.8773,-8.1102 13.7344,-12.1757 23.614,-12.1757 7.1201,0 13.1236,1.9168 18.0527,5.7087 4.9082,3.8126 8.5737,9.1001 10.9752,15.8619 2.4012,6.783 3.623,13.1235 3.623,19.0428 0,9.9218 -1.1376,18.053 -3.4124,24.4145 -2.2541,6.3618 -5.8561,11.5858 -10.7855,15.6725 -4.9502,4.0867 -11.1223,6.1299 -18.5794,6.1509 z m -0.063,-11.9228 c 4.2763,0 7.7309,-1.3059 10.364,-3.939 2.6334,-2.6331 4.4237,-6.3196 5.3716,-11.0594 0.9479,-4.7185 1.4327,-11.2697 1.4327,-19.6115 0,-6.9304 -1.1798,-13.4816 -3.4968,-19.696 -2.3174,-6.2141 -6.7831,-9.3106 -13.3555,-9.3106 -11.4383,0 -17.168,10.5746 -17.168,31.7029 0,9.6058 1.2217,17.3155 3.6442,23.1506 2.4225,5.8351 6.8253,8.763 13.2078,8.763 z m 136.2699,-2.5277 v 13.1446 h -62.0788 v -14.7456 l 25.8047,-17.168 c 8.0047,-5.3507 13.3974,-10.0902 16.1569,-14.2189 2.7595,-4.1289 4.1289,-7.9205 4.1289,-11.3751 0,-4.1709 -1.3694,-7.6677 -4.1289,-10.5117 -2.7595,-2.8228 -6.3406,-4.2551 -10.743,-4.2551 -9.6268,0 -15.1458,5.8771 -16.5994,17.5893 l -14.6192,-3.6443 c 1.1163,-7.478 4.4238,-13.8818 9.9638,-19.2112 5.54,-5.3294 12.7865,-8.0048 21.7602,-8.0048 9.2897,0 16.7258,2.6541 22.2658,7.9416 5.5613,5.2872 8.3418,12.007 8.3418,20.1381 0,7.2043 -2.4647,13.6293 -7.4148,19.2958 -4.9292,5.6664 -17.1681,14.0082 -36.7166,25.0253 z m 75.2442,14.4505 c -10.3218,-0.021 -18.2843,-4.0022 -23.8878,-12.007 -5.5823,-8.0047 -8.3838,-18.1791 -8.3838,-30.5235 0,-13.3341 2.9279,-24.0562 8.784,-32.1451 5.8774,-8.1102 13.7345,-12.1757 23.6141,-12.1757 7.12,0 13.1235,1.9168 18.0527,5.7087 4.9082,3.8126 8.5736,9.1001 10.9752,15.8619 2.4012,6.783 3.6229,13.1235 3.6229,19.0428 0,9.9218 -1.1375,18.053 -3.4123,24.4145 -2.2541,6.3618 -5.8561,11.5858 -10.7856,15.6725 -4.9501,4.0867 -11.1223,6.1299 -18.5794,6.1509 z m -0.063,-11.9228 c 4.2764,0 7.7309,-1.3059 10.364,-3.939 2.6334,-2.6331 4.4238,-6.3196 5.3717,-11.0594 0.9479,-4.7185 1.4326,-11.2697 1.4326,-19.6115 0,-6.9304 -1.1797,-13.4816 -3.4968,-19.696 -2.3173,-6.2141 -6.783,-9.3106 -13.3554,-9.3106 -11.4384,0 -17.1681,10.5746 -17.1681,31.7029 0,9.6058 1.2218,17.3155 3.6443,23.1506 2.4225,5.8351 6.8252,8.763 13.2077,8.763 z"
     style="fill:#54a9d4;fill-rule:evenodd"
     id="path36"
     inkscape:connector-curvature="0"
     inkscape:export-xdpi="96"
     inkscape:export-ydpi="96" />
  <path
     d="M 931.6431,1494.1579 H 798.9412 v -16.8446 h 24.6886 v -446.381 l -57.6068,463.2256 h -66.8653 l -66.8656,-463.2256 v 446.381 h 24.6886 v 16.8446 h -76.1235 v -16.8446 h 25.7173 V 855.936 h -25.7173 v -16.8446 h 109.2135 l 70.2941,510.3281 62.2366,-510.3281 h 109.0417 v 16.8446 h -25.7173 v 621.3773 h 25.7173 z m -66.8653,-16.8446 V 855.936 H 844.204 v 621.3773 z m -121.0433,0 -93.7831,-621.3773 h -21.9456 l 92.9259,621.3773 z m 508.8628,16.8446 h -133.7306 v -16.8446 h 25.7173 V 855.936 h -25.7173 v -16.8446 h 133.7306 V 855.936 H 1226.88 v 621.3773 h 25.7173 z m -66.8653,-16.8446 V 855.936 h -20.5741 v 621.3773 z m 504.9196,16.8446 h -251.0025 v -16.8446 h 25.7173 V 855.936 h -25.7173 v -16.8446 h 133.7306 v 16.8446 h -25.7173 v 621.3773 h 60.6934 v -179.6754 h 82.2958 z m -184.1372,-16.8446 V 855.936 h -20.5739 v 621.3773 z m 142.9892,0 v -162.8308 h -20.5742 v 162.8308 z m 525.6649,16.8446 h -99.9553 l -90.6968,-318.0192 v 301.1746 h 25.7174 v 16.8446 h -133.7307 v -16.8446 h 25.7173 V 855.936 h -25.7173 v -16.8446 h 133.7307 v 16.8446 h -25.7174 v 283.7061 L 2098.7019,855.936 h -24.6886 v -16.8446 h 76.1236 v 16.8446 h -25.7174 l -89.3256,221.6307 114.0143,399.7466 h 26.0603 z m -231.8001,-16.8446 V 855.936 h -20.5738 v 621.3773 z m 168.0208,0 -99.4408,-348.433 -12.0016,29.9458 90.8683,318.4872 z m 643.2792,16.8446 h -251.0022 v -16.8446 h 25.7173 V 855.936 h -25.7173 v -16.8446 h 133.7304 v 16.8446 h -25.7174 v 621.3773 h 60.6935 v -179.6754 h 82.2957 z m -184.1372,-16.8446 V 855.936 h -20.5735 v 621.3773 z m 142.9895,0 v -162.8308 h -20.5741 v 162.8308 z m 489.3174,16.8446 h -133.5595 v -16.8446 h 25.5462 l -18.688,-189.9692 h -73.8947 l -20.5741,189.9692 h 25.7173 v 16.8446 H 2929.89 v -16.8446 h 25.7174 l 71.4948,-638.2219 h 83.4959 l 66.6939,638.2219 h 25.5461 z m -127.73,-222.7227 -34.2901,-354.6717 -37.5475,354.6717 z m 61.2074,205.8781 -64.9792,-621.3773 h -20.9168 l 64.9791,621.3773 z m 508.5201,-78.764 c 0,26.2029 -12.0016,48.662 -36.176,67.5343 -24.1745,18.7163 -53.3209,28.0743 -87.4395,28.0743 H 3377.374 v -16.8446 h 25.7173 V 855.936 h -25.7173 v -16.8446 h 143.8461 c 34.1186,0 63.265,9.358 87.4395,28.0743 24.1744,18.7161 36.176,41.1755 36.176,67.2222 v 126.3342 c 0,40.8637 -24.0029,69.7179 -72.0091,86.7184 48.0062,18.2483 72.0091,47.4145 72.0091,87.3422 z m -41.148,-322.5422 v -156.124 c 0,-25.2669 -12.1731,-44.919 -36.69,-58.9561 10.8009,11.2297 16.1158,26.5147 16.1158,45.6987 v 182.1708 c 0,19.184 -5.3149,34.469 -16.1158,46.1667 24.5169,-14.3492 36.69,-34.0013 36.69,-58.9561 z m -41.1477,26.0467 V 893.3683 c 0,-10.294 -4.1151,-19.184 -12.1731,-26.5147 -8.0581,-7.3304 -17.8308,-10.9176 -29.1467,-10.9176 h -35.8328 v 283.5502 h 35.8328 c 11.3159,0 21.0886,-3.5873 29.1467,-10.9177 8.058,-7.3306 12.1731,-16.2207 12.1731,-26.5147 z m -118.3006,375.2595 V 855.936 h -20.5738 v 621.3773 z m 159.4483,-63.635 v -193.7126 c 0,-25.1107 -12.1731,-44.7627 -36.69,-59.112 10.8009,11.6978 16.1158,26.8266 16.1158,45.6988 v 220.3832 c 0,19.0281 -5.3149,34.1569 -16.1158,45.8546 24.5169,-14.3492 36.69,-34.0013 36.69,-59.112 z m -41.1477,26.2026 v -246.1178 c 0,-10.294 -4.1151,-19.184 -12.1731,-26.5147 -8.0581,-7.3304 -17.8308,-10.9176 -29.1467,-10.9176 h -35.8328 v 320.9825 h 35.8328 c 11.3159,0 21.0886,-3.5873 29.1467,-10.9176 8.058,-7.3307 12.1731,-16.2207 12.1731,-26.5148 z"
     style="fill:#54a9d4;fill-rule:evenodd"
     id="path38"
     inkscape:connector-curvature="0"
     inkscape:export-xdpi="96"
     inkscape:export-ydpi="96" />
  <text
     x="694.91791"
     y="2194.9485"
     id="text48">
    <tspan
       font-size="162.0000"
       id="tspan40"
       style="font-size:162px;font-family:Arial;fill:#1b1918">Шрифт</tspan>
    <tspan
       font-size="162.0000"
       id="tspan42"
       style="font-size:162px;font-family:Arial;fill:#1b1918">: Niagara Engraved</tspan>
    <tspan
       font-size="162.0000"
       id="tspan44"
       style="font-size:162px;font-family:Arial;fill:#1b1918">и</tspan>
    <tspan
       font-size="162.0000"
       id="tspan46"
       style="font-size:162px;font-family:Arial;fill:#1b1918">Franklin Gothic Medium</tspan>
  </text>
</svg>
